<svg xmlns="http://www.w3.org/2000/svg" fill="none" viewBox="0 0 42 42">
  <path fill="#fff" d="M31.48 2.8a48.97 48.97 0 0 0-5.31-.28c-5.89 0-9.55 3.75-9.55 9.78v4.1h-4.94a.88.88 0 0 0-.87.87v6.74a.87.87 0 0 0 .87.88h4.94v13.5a.88.88 0 0 0 .88.88h6.96a.87.87 0 0 0 .88-.87V24.89h4.92a.88.88 0 0 0 .87-.76l.87-6.74a.88.88 0 0 0-.87-1h-5.8v-3.42c0-1.7.35-2.4 2.47-2.4h3.57a.88.88 0 0 0 .87-.88V3.66a.87.87 0 0 0-.76-.87Zm-.98 6h-2.7c-3.77 0-4.2 2.38-4.2 4.16v4.3a.87.87 0 0 0 .87.88h5.68l-.65 4.99h-5.03a.87.87 0 0 0-.87.87v13.51h-5.22v-13.5a.87.87 0 0 0-.87-.88h-4.94v-4.99h4.94a.87.87 0 0 0 .87-.87V12.3c0-5.03 2.92-8.03 7.8-8.03a54 54 0 0 1 4.32.18v4.36Z"/>
</svg>
