<svg xmlns="http://www.w3.org/2000/svg" fill="none" viewBox="0 0 42 42">
  <path fill="#fff" d="M21 13.45a7.55 7.55 0 1 0 0 15.1 7.55 7.55 0 0 0 0-15.1Zm0 13.13a5.58 5.58 0 1 1 0-11.16 5.58 5.58 0 0 1 0 11.16Zm7.22-21.66H13.78a8.86 8.86 0 0 0-8.86 8.86v14.44a8.86 8.86 0 0 0 8.86 8.86h14.44a8.86 8.86 0 0 0 8.86-8.86V13.78a8.86 8.86 0 0 0-8.86-8.86Zm6.89 23.3a6.9 6.9 0 0 1-6.9 6.89H13.79a6.9 6.9 0 0 1-6.89-6.9V13.79a6.9 6.9 0 0 1 6.9-6.89h14.43a6.9 6.9 0 0 1 6.89 6.9v14.43Zm-3.94-15.75a1.64 1.64 0 1 1-3.28 0 1.64 1.64 0 0 1 3.28 0Z"/>
</svg>
