<svg xmlns="http://www.w3.org/2000/svg" fill="none" viewBox="0 0 32 32">
  <path fill="#011C44" d="m27.65 22.96-.17-.22c-1.37-1.73-2.52-2.64-3.5-2.75-.85-.12-1.67.47-2.55 1.07l-.93.59-.33.13c-.55.15-1.93.24-2.7-.47a40.39 40.39 0 0 1-3.43-3.69 40.73 40.73 0 0 1-2.8-4.17c-.5-.92-.08-2.2.2-2.67.06-.1.13-.19.21-.28l.83-.76.03-.04.03-.01c.74-.63 1.51-1.28 1.62-2.1.12-.98-.49-2.3-1.86-4.04l-.17-.21C11.28 2.24 10 .6 8.15.87c-.73.1-1.38.36-2.05.78l-.02.01-.01.01-.94.7-.02.02-.02.01-.33.28c-.94.84-2.99 3.3-1.6 7.82.9 2.92 2.77 6.33 5.4 9.88l-.03.02 1.45 1.8h.01c2.85 3.37 5.75 5.97 8.4 7.55a8.96 8.96 0 0 0 4.6 1.4 6.4 6.4 0 0 0 3.49-1l.37-.25a.31.31 0 0 0 .1-.1l.83-.63.03-.02.01-.01c.6-.54 1-1.1 1.28-1.76.73-1.7-.58-3.34-1.45-4.42Zm.47 4c-.22.52-.54.96-1 1.38l-1.23.93c-1.12.72-3.5 1.61-6.95-.44-2.65-1.58-5.58-4.24-8.46-7.71l-.78-.98c-2.7-3.6-4.6-7.04-5.5-9.96-1.17-3.8.3-5.83 1.29-6.7.1-.1.2-.18.3-.26l.9-.67a4.07 4.07 0 0 1 1.62-.62c1.24-.2 2.25 1.12 2.99 2.06l.17.22C13 6.15 13.15 7.07 13.1 7.45c-.05.42-.69.95-1.25 1.42l-.08.07-.02.01-.85.8-.01.01-.02.02a3 3 0 0 0-.34.45c-.48.8-.93 2.45-.22 3.74a41.7 41.7 0 0 0 2.9 4.31 42.67 42.67 0 0 0 3.53 3.81c.7.65 1.69.86 2.54.86.45 0 .87-.06 1.19-.15.16-.05.33-.12.51-.2l.03-.02h.02l.99-.63.08-.07c.62-.41 1.31-.9 1.75-.84.38.05 1.26.42 2.8 2.36l.17.23c.75.93 1.78 2.21 1.3 3.33Z"/>
</svg>
