<svg xmlns="http://www.w3.org/2000/svg" fill="none" viewBox="0 0 42 42">
  <path fill="#fff" d="m36.3 30.13-.23-.28c-1.8-2.28-3.3-3.46-4.6-3.62-1.11-.15-2.2.62-3.34 1.41l-1.23.77c-.15.07-.3.13-.43.17-.72.2-2.53.33-3.55-.61a54.68 54.68 0 0 1-4.49-4.84 53.43 53.43 0 0 1-3.67-5.48c-.67-1.2-.11-2.88.26-3.5.07-.13.17-.25.28-.37l1.08-1 .03-.05.04-.01c.98-.83 2-1.68 2.13-2.77.16-1.28-.63-3-2.44-5.28l-.22-.29c-1.12-1.43-2.8-3.6-5.23-3.24-.95.14-1.8.47-2.68 1.02l-.02.02-.03.01-1.22.9-.03.04-.04.02-.42.37c-1.24 1.1-3.93 4.32-2.1 10.26 1.19 3.83 3.63 8.3 7.08 12.97l-.04.02 1.9 2.37h.02c3.74 4.42 7.55 7.84 11.04 9.9a11.76 11.76 0 0 0 6.03 1.85c2.2 0 3.78-.8 4.57-1.31l.5-.33.13-.14 1.09-.82.03-.03.02-.01a6.5 6.5 0 0 0 1.67-2.32c.96-2.24-.76-4.38-1.9-5.8Zm.6 5.25a5.16 5.16 0 0 1-1.31 1.82l-1.61 1.21c-1.46.95-4.58 2.12-9.12-.57-3.48-2.07-7.32-5.57-11.1-10.12l-1.02-1.3c-3.56-4.71-6.06-9.23-7.25-13.06-1.53-4.98.4-7.65 1.7-8.8l.4-.34 1.17-.87c.71-.46 1.38-.7 2.14-.82 1.62-.25 2.95 1.47 3.92 2.71l.22.3c2.02 2.53 2.21 3.74 2.15 4.24-.07.54-.9 1.25-1.64 1.86l-.1.1-.02.01-1.12 1.04-.02.02-.03.02c-.17.2-.32.4-.44.6-.63 1.04-1.22 3.22-.29 4.9.82 1.47 2.38 3.8 3.8 5.67 1.5 1.81 3.4 3.87 4.64 5a4.94 4.94 0 0 0 3.33 1.13c.6 0 1.15-.09 1.56-.2.22-.07.45-.16.68-.27l.03-.03h.03l1.3-.82.1-.1.02.02c.8-.55 1.7-1.2 2.28-1.11.5.06 1.65.55 3.67 3.1l.23.29c.99 1.22 2.34 2.9 1.7 4.37Z"/>
</svg>
